<?xml version="1.0" encoding="utf-8"?>
<!-- Generator: Adobe Illustrator 26.2.1, SVG Export Plug-In . SVG Version: 6.00 Build 0)  -->
<svg version="1.1" id="Layer_1" xmlns="http://www.w3.org/2000/svg" xmlns:xlink="http://www.w3.org/1999/xlink" x="0px" y="0px"
	 viewBox="0 0 500 500" style="enable-background:new 0 0 500 500;" xml:space="preserve">
<style type="text/css">
	.st0{fill-rule:evenodd;clip-rule:evenodd;fill:url(#SVGID_1_);}
	.st1{fill-rule:evenodd;clip-rule:evenodd;fill:url(#SVGID_00000003100453589788273240000000885505218103882152_);}
</style>
<g>
	<linearGradient id="SVGID_1_" gradientUnits="userSpaceOnUse" x1="366.7396" y1="440.9945" x2="366.7396" y2="99.0561">
		<stop  offset="0.0318" style="stop-color:#48AFFF"/>
		<stop  offset="1" style="stop-color:#48A3FF"/>
	</linearGradient>
	<path class="st0" d="M452.99,117.07c-11.57-14.93-27.25-26.14-45.11-32.26l0,0.1c-17.56-6.14-36.58-6.75-54.51-1.76
		c-18.21,5.22-34.28,16.11-45.87,31.09c-13.12,17.31-22.1,37.4-26.25,58.72c-1.56,7.44-2.71,14.96-3.45,22.52
		c-0.79,7.88-1.31,16.17-1.31,25.15v152.29v4.11v14.02c-0.79,37.96,65.9,40.03,64.83-0.48v-13.54v-4.11V234.44
		c18.09,7.97,38.26,9.92,57.55,5.56c21.96-4.45,41.34-17.27,54.02-35.75c0.27-0.45,0.49-0.92,0.66-1.42
		c2.28-6.04,3.45-24.46,3.45-42.45C457.07,140.62,455.72,120.52,452.99,117.07z M354.17,115.62c-5.28,2.75-10.07,6.35-14.2,10.64
		c-4.85,4.86-9.03,10.34-12.43,16.3c-1.31,2.29-4.22,3.09-6.51,1.78c-2.29-1.31-3.09-4.22-1.78-6.51
		c3.79-6.66,8.44-12.81,13.82-18.27c4.9-5.05,10.6-9.28,16.86-12.5c2.37-1.15,5.22-0.18,6.39,2.18h0.03
		C357.49,111.59,356.52,114.44,354.17,115.62z M422.08,179.48c0,5.08-4.11,9.2-9.19,9.22h-3.83c-5.09-0.02-9.2-4.14-9.22-9.22
		v-42.45c0.02-5.09,4.14-9.2,9.22-9.22v-0.03h3.83c5.08,0.02,9.19,4.14,9.19,9.22V179.48z"/>
	
		<linearGradient id="SVGID_00000174599939877343210370000008061733669407172536_" gradientUnits="userSpaceOnUse" x1="133.2729" y1="438.1213" x2="133.2729" y2="118.3114">
		<stop  offset="0.0318" style="stop-color:#48AFFF"/>
		<stop  offset="1" style="stop-color:#48A3FF"/>
	</linearGradient>
	<path style="fill-rule:evenodd;clip-rule:evenodd;fill:url(#SVGID_00000174599939877343210370000008061733669407172536_);" d="
		M222.23,195.37c-0.75-7.53-1.9-15.01-3.45-22.42c-4.16-21.33-13.15-41.41-26.29-58.72c-11.59-14.98-27.66-25.87-45.87-31.09
		c-17.91-5.02-36.93-4.44-54.51,1.66c-17.86,6.12-33.55,17.33-45.11,32.26c-2.73,3.56-4.01,23.56-4.01,43.31
		c0,18,1.17,36.41,3.45,42.45c0.14,0.49,0.32,0.96,0.55,1.42c12.69,18.48,32.06,31.3,54.02,35.75c19.32,4.38,39.53,2.43,57.65-5.56
		v138.47h-0.14v17.58c-1.07,40.52,65.63,38.48,64.83,0.48v-13.95h0.17V220.52C223.44,211.54,223.03,203.21,222.23,195.37z
		 M99.99,179.48c0,5.08-4.11,9.2-9.19,9.22h-3.83c-5.09-0.02-9.2-4.14-9.22-9.22v-42.45c0.02-5.09,4.14-9.2,9.22-9.22h0.03h3.83
		c5.07,0.04,9.15,4.16,9.15,9.22V179.48z M178.38,144.21c-2.16,1.07-4.77,0.36-6.1-1.65c-3.38-5.94-7.51-11.42-12.3-16.3
		c-4.17-4.3-9.01-7.89-14.33-10.64c-2.34-1.2-3.27-4.08-2.06-6.42c1.17-2.28,3.92-3.22,6.24-2.15h0.03
		c6.26,3.22,11.96,7.44,16.86,12.5c5.38,5.47,10.02,11.61,13.82,18.27C181.71,140.19,180.74,143.05,178.38,144.21z"/>
</g>
</svg>
