<?xml version="1.0" encoding="utf-8"?>
<!-- Generator: Adobe Illustrator 26.2.1, SVG Export Plug-In . SVG Version: 6.00 Build 0)  -->
<svg version="1.1" id="Layer_1" xmlns="http://www.w3.org/2000/svg" xmlns:xlink="http://www.w3.org/1999/xlink" x="0px" y="0px"
	 width="500px" height="500px" viewBox="0 0 500 500" style="enable-background:new 0 0 500 500;" xml:space="preserve">
<style type="text/css">
	.st0{fill:#7F47DD;}
	.st1{opacity:0.5;fill:#522EA3;}
</style>
<path class="st0" d="M249.6,460.3c-32.7,0-65.4,0.1-98.2,0c-54.2-0.1-98.2-43.8-98.3-98c-0.2-61.9,0-123.9,0-185.8
	c0-9.7,1.7-11.4,11.6-11.4c22.2,0,44.4,0.1,66.5-0.1c5.7-0.1,9.3,1.7,12.2,6.8c8,14.2,20.7,21.3,36.9,21.3
	c46.6,0.2,93.1,0.2,139.7,0c16.2-0.1,28.7-7.3,36.8-21.5c2.6-4.5,5.6-6.7,10.9-6.6c23.1,0.2,46.1,0.1,69.2,0.1c8,0,10,2.1,10,10.2
	c0,62.6,0.2,125.2-0.1,187.8c-0.2,53.5-44.3,97-97.8,97.1C315.9,460.4,282.7,460.3,249.6,460.3z"/>
<path class="st0" d="M250.2,43.7c32.5,0,65,0,97.6,0c51,0.1,93,37.6,98.7,88.1c0.8,7.1-1.9,10.4-9.1,10.4c-23.5,0.1-47,0.2-70.5-0.2
	c-3.2-0.1-7.5-2.9-9.2-5.6c-9.1-14.8-21.9-22.3-39.2-22.3c-45.7,0.1-91.4,0-137.1,0c-17.1,0-30.1,7.2-38.5,22.1
	c-2.5,4.4-5.7,6.1-10.6,6.1c-23.1-0.1-46.1,0-69.2-0.1c-7.6,0-10.4-3.4-9.4-10.7c6.7-51.5,47.8-87.8,99.7-87.8
	C185.6,43.7,217.9,43.7,250.2,43.7z"/>
<path class="st1" d="M250.8,142.3c22.8,0,45.6,0,68.5,0c6.4,0,11.1,2.5,13.8,8.3c2.5,5.5,1.8,11.2-2.7,15.1
	c-2.7,2.4-6.9,4.4-10.5,4.5c-46.5,0.3-93,0.3-139.5,0.1c-8.7,0-15-6.5-14.8-14.4c0.2-7.6,6.4-13.5,14.9-13.6
	C203.9,142.2,227.4,142.3,250.8,142.3z"/>
<path class="st1" d="M353.1,419.9H146.9c-32.6,0-59.1-26.5-59.1-59.1V283c0-32.6,26.4-59.1,59.1-59.1H353
	c32.6,0,59.1,26.4,59.1,59.1v77.8C412.1,393.4,385.7,419.9,353.1,419.9z"/>
</svg>
