<?xml version="1.0" encoding="utf-8"?>
<!-- Generator: Adobe Illustrator 26.2.1, SVG Export Plug-In . SVG Version: 6.00 Build 0)  -->
<svg version="1.1" id="Layer_1" xmlns="http://www.w3.org/2000/svg" xmlns:xlink="http://www.w3.org/1999/xlink" x="0px" y="0px"
	 width="399.5px" height="395.6px" viewBox="0 0 399.5 395.6" style="enable-background:new 0 0 399.5 395.6;" xml:space="preserve"
	>
<style type="text/css">
	.st0{fill:#016E92;}
	.st1{fill:#00546B;}
	.st2{fill-rule:evenodd;clip-rule:evenodd;fill:#FFFFFF;}
	.st3{fill:#FFFFFF;}
	.st4{fill-rule:evenodd;clip-rule:evenodd;fill:#00546B;}
	.st5{fill:url(#SVGID_1_);stroke:#FFFFFF;stroke-width:10.0597;stroke-miterlimit:10;}
</style>
<g>
	<path class="st0" d="M365.4,173.6v18.2c0,7.7-6.2,14-14,14c-0.3,0-0.6,0-0.9,0c-5.1,34.7-21.3,65.8-44.9,89.4
		c-28.7,28.7-68.6,46.6-112.5,46.6s-83.7-17.7-112.5-46.6C52,266.5,34.1,226.7,34.1,182.8S51.9,99.1,80.7,70.4
		c28.7-28.7,68.6-46.6,112.5-46.6s83.7,17.7,112.4,46.6c23.6,23.6,40,54.7,44.9,89.4c0.3,0,0.6,0,0.9,0
		C359.1,159.8,365.4,166.1,365.4,173.6z"/>
	<g>
		<g>
			<path class="st1" d="M350.5,159.8c-5-34.7-21.3-65.8-44.9-89.4C276.9,41.7,237,23.8,193.1,23.8S109.5,41.6,80.7,70.5
				C52,99.2,34.1,139.1,34.1,183s17.8,83.7,46.6,112.5c28.7,28.7,68.6,46.6,112.5,46.6s83.7-17.8,112.4-46.8
				c23.6-23.6,39.8-54.7,44.9-89.4c1.2-7.6,1.7-15.3,1.7-23C352.1,175,351.5,167.2,350.5,159.8z M292.5,282.2
				c-25.4,25.4-60.5,41.1-99.3,41.1s-73.9-15.7-99.3-41.1s-41.1-60.5-41.1-99.3S68.5,109,93.9,83.6s60.5-41.1,99.3-41.1
				s73.9,15.7,99.3,41.1s41.1,60.5,41.1,99.3S317.9,256.8,292.5,282.2z"/>
			<g>
				<path class="st2" d="M185.6,175.1c6.1-5.6,15.6-5.1,21.2,1s5.1,15.6-1,21.2c-6.1,5.6-15.6,5.1-21.2-1
					C179.2,190.1,179.6,180.6,185.6,175.1z"/>
				<path class="st3" d="M247.5,151.6c3.8-3.4,4-9.4,0.6-13.2s-9.4-4-13.2-0.6L196.3,173l-52.5-57.6c-3.4-3.8-9.4-4-13.2-0.6
					s-4,9.4-0.6,13.2l58.7,64.4c3.4,3.8,9.4,4,13.2,0.6L247.5,151.6z"/>
			</g>
			<path class="st4" d="M365.4,173.6v18.2c0,7.7-6.2,14-14,14c-0.3,0-0.6,0-0.9,0c-3.5-0.3-6.6-1.7-8.9-4.1c-2.5-2.5-4.1-6-4.1-9.9
				v-18.2c0-7.4,5.8-13.4,13-14c0.3,0,0.6,0,0.9,0C359.1,159.8,365.4,166.1,365.4,173.6z"/>
		</g>
	</g>
	
		<linearGradient id="SVGID_1_" gradientUnits="userSpaceOnUse" x1="291.5263" y1="439.5368" x2="291.5263" y2="287.0241" gradientTransform="matrix(1 0 0 1 0 -32.2969)">
		<stop  offset="5.540901e-07" style="stop-color:#D63421"/>
		<stop  offset="1" style="stop-color:#EB6421"/>
	</linearGradient>
	<path class="st5" d="M345.7,321.9l-100.3,59.7c-4.3,2.6-9.8,1.7-13.1-2c-2.9-3.3-4.8-7.7-4.8-12.7v-112c0-5.8,2.5-11,6.5-14.3
		c4.1-3.5,10.1-3.9,14.7-1l96.9,59.9c0.1,0.1,0.2,0.2,0.4,0.2C347.9,300.5,366.8,309.3,345.7,321.9z"/>
</g>
</svg>
