<svg width="55" height="56" viewBox="0 0 55 56" fill="none" xmlns="http://www.w3.org/2000/svg">
<ellipse cx="27.5" cy="27.7881" rx="27.5" ry="27.691" fill="#D7D9DB" fill-opacity="0.2"/>
<g opacity="0.4">
<path fill-rule="evenodd" clip-rule="evenodd" d="M25 23C25 21.3431 26.3431 20 28 20C29.6569 20 31 21.3431 31 23C31 24.6569 29.6569 26 28 26C26.3431 26 25 24.6569 25 23ZM28 18C25.2386 18 23 20.2386 23 23C23 25.7614 25.2386 28 28 28C30.7614 28 33 25.7614 33 23C33 20.2386 30.7614 18 28 18ZM24 30C22.6739 30 21.4021 30.5268 20.4645 31.4645C19.5268 32.4021 19 33.6739 19 35V37C19 37.5523 19.4477 38 20 38C20.5523 38 21 37.5523 21 37V35C21 34.2043 21.3161 33.4413 21.8787 32.8787C22.4413 32.3161 23.2044 32 24 32H32C32.7956 32 33.5587 32.3161 34.1213 32.8787C34.6839 33.4413 35 34.2044 35 35V37C35 37.5523 35.4477 38 36 38C36.5523 38 37 37.5523 37 37V35C37 33.6739 36.4732 32.4021 35.5355 31.4645C34.5979 30.5268 33.3261 30 32 30H24Z" fill="#07121B" fill-opacity="0.6"/>
</g>
</svg>
